<mxfile host="app.diagrams.net" agent="Mozilla/5.0 (Windows NT 10.0; Win64; x64) AppleWebKit/537.36 (KHTML, like Gecko) Chrome/131.0.0.0 Safari/537.36" version="24.9.0">
  <diagram name="Seite-1" id="-t3H0js_d4fAfnEZcZbd">
    <mxGraphModel dx="1318" dy="555" grid="1" gridSize="10" guides="1" tooltips="1" connect="1" arrows="1" fold="1" page="1" pageScale="1" pageWidth="827" pageHeight="1169" math="0" shadow="0">
      <root>
        <mxCell id="0" />
        <mxCell id="1" parent="0" />
        <mxCell id="fAjWMKq37bFf61yFgCFw-1" value="" style="html=1;verticalLabelPosition=bottom;align=center;labelBackgroundColor=#ffffff;verticalAlign=top;strokeWidth=2;strokeColor=#0080F0;shadow=0;dashed=0;shape=mxgraph.ios7.icons.reload;rotation=-45;" vertex="1" parent="1">
          <mxGeometry x="283.62" y="112.17" width="263.87" height="289" as="geometry" />
        </mxCell>
        <mxCell id="fAjWMKq37bFf61yFgCFw-5" value="" style="edgeStyle=orthogonalEdgeStyle;rounded=0;orthogonalLoop=1;jettySize=auto;html=1;" edge="1" parent="1" source="fAjWMKq37bFf61yFgCFw-3" target="fAjWMKq37bFf61yFgCFw-4">
          <mxGeometry relative="1" as="geometry" />
        </mxCell>
        <mxCell id="fAjWMKq37bFf61yFgCFw-3" value="Informationsasymmetrie" style="rounded=1;whiteSpace=wrap;html=1;fillColor=#d5e8d4;strokeColor=#82b366;" vertex="1" parent="1">
          <mxGeometry x="530" y="120" width="170" height="40" as="geometry" />
        </mxCell>
        <mxCell id="fAjWMKq37bFf61yFgCFw-4" value="Die Verkäufer kennen die Qualität des Gutes, die Käufer können diese nicht beurteilen" style="rounded=1;whiteSpace=wrap;html=1;" vertex="1" parent="1">
          <mxGeometry x="740" y="115" width="212.5" height="50" as="geometry" />
        </mxCell>
        <mxCell id="fAjWMKq37bFf61yFgCFw-8" value="Gegenmaßnahmen" style="rounded=1;whiteSpace=wrap;html=1;fillColor=#f8cecc;strokeColor=#b85450;" vertex="1" parent="1">
          <mxGeometry x="570" y="300" width="170" height="40" as="geometry" />
        </mxCell>
        <mxCell id="fAjWMKq37bFf61yFgCFw-9" value="Zahlungsbereitschaft&amp;nbsp;&lt;div&gt;orientiert sich an der&amp;nbsp;&lt;/div&gt;&lt;div style=&quot;&quot;&gt;durchschnittlichen Qualität&lt;/div&gt;" style="shape=card;whiteSpace=wrap;html=1;size=120;align=right;" vertex="1" parent="1">
          <mxGeometry x="470" y="210" width="180" height="70" as="geometry" />
        </mxCell>
        <mxCell id="fAjWMKq37bFf61yFgCFw-12" value="" style="edgeStyle=orthogonalEdgeStyle;rounded=0;orthogonalLoop=1;jettySize=auto;html=1;" edge="1" parent="1" source="fAjWMKq37bFf61yFgCFw-10" target="fAjWMKq37bFf61yFgCFw-11">
          <mxGeometry relative="1" as="geometry" />
        </mxCell>
        <mxCell id="fAjWMKq37bFf61yFgCFw-10" value="Adverse Selection" style="rounded=1;whiteSpace=wrap;html=1;fillColor=#d5e8d4;strokeColor=#82b366;" vertex="1" parent="1">
          <mxGeometry x="510" y="390" width="120" height="40" as="geometry" />
        </mxCell>
        <mxCell id="fAjWMKq37bFf61yFgCFw-14" value="" style="edgeStyle=orthogonalEdgeStyle;rounded=0;orthogonalLoop=1;jettySize=auto;html=1;" edge="1" parent="1" source="fAjWMKq37bFf61yFgCFw-11" target="fAjWMKq37bFf61yFgCFw-13">
          <mxGeometry relative="1" as="geometry" />
        </mxCell>
        <mxCell id="fAjWMKq37bFf61yFgCFw-11" value="Qualitativ hochwertige Güter werden vom Markt verdrängt" style="rounded=1;whiteSpace=wrap;html=1;" vertex="1" parent="1">
          <mxGeometry x="670" y="380" width="210" height="60" as="geometry" />
        </mxCell>
        <mxCell id="fAjWMKq37bFf61yFgCFw-13" value="nur noch &quot;Lemons werden angeboten&quot;" style="rounded=1;whiteSpace=wrap;html=1;" vertex="1" parent="1">
          <mxGeometry x="706.25" y="470" width="137.5" height="60" as="geometry" />
        </mxCell>
        <mxCell id="fAjWMKq37bFf61yFgCFw-15" value="Qualitätserwartungen und damit auch die Zahlungsbereitschaft sint" style="rounded=1;whiteSpace=wrap;html=1;" vertex="1" parent="1">
          <mxGeometry x="170" y="380" width="160" height="60" as="geometry" />
        </mxCell>
        <mxCell id="fAjWMKq37bFf61yFgCFw-16" value="" style="shape=flexArrow;endArrow=classic;startArrow=classic;html=1;rounded=0;exitX=0;exitY=0.5;exitDx=0;exitDy=0;entryX=1;entryY=0.5;entryDx=0;entryDy=0;" edge="1" parent="1" source="fAjWMKq37bFf61yFgCFw-10" target="fAjWMKq37bFf61yFgCFw-15">
          <mxGeometry width="100" height="100" relative="1" as="geometry">
            <mxPoint x="310" y="300" as="sourcePoint" />
            <mxPoint x="180" y="320" as="targetPoint" />
          </mxGeometry>
        </mxCell>
        <mxCell id="fAjWMKq37bFf61yFgCFw-19" value="" style="edgeStyle=orthogonalEdgeStyle;rounded=0;orthogonalLoop=1;jettySize=auto;html=1;" edge="1" parent="1" source="fAjWMKq37bFf61yFgCFw-17" target="fAjWMKq37bFf61yFgCFw-18">
          <mxGeometry relative="1" as="geometry" />
        </mxCell>
        <mxCell id="fAjWMKq37bFf61yFgCFw-17" value="Markt ist ineffizient" style="shape=card;whiteSpace=wrap;html=1;size=120;align=right;fillColor=#ffe6cc;strokeColor=#d79b00;" vertex="1" parent="1">
          <mxGeometry x="160" y="250" width="160" height="30" as="geometry" />
        </mxCell>
        <mxCell id="fAjWMKq37bFf61yFgCFw-18" value="Markt bricht zusammen" style="shape=card;whiteSpace=wrap;html=1;size=120;align=right;fillColor=#ffe6cc;strokeColor=#d79b00;" vertex="1" parent="1">
          <mxGeometry x="160" y="190" width="160" height="30" as="geometry" />
        </mxCell>
      </root>
    </mxGraphModel>
  </diagram>
</mxfile>
